<?xml version="1.0" standalone="no"?>
<!DOCTYPE svg PUBLIC "-//W3C//DTD SVG 20010904//EN"
 "http://www.w3.org/TR/2001/REC-SVG-20010904/DTD/svg10.dtd">
<svg version="1.0" xmlns="http://www.w3.org/2000/svg"
 width="98.000000pt" height="98.000000pt" viewBox="0 0 98.000000 98.000000"
 preserveAspectRatio="xMidYMid meet">
<metadata>
Created by potrace 1.14, written by Peter Selinger 2001-2017
</metadata>
<g transform="translate(0.000000,98.000000) scale(0.100000,-0.100000)"
fill="#000000" stroke="none">
<path d="M135 855 c-33 -19 -68 -34 -77 -35 -22 0 -32 -18 -20 -33 5 -7 15
-30 22 -52 7 -22 15 -44 19 -50 6 -12 6 -11 15 -88 3 -33 1 -67 -4 -77 -12
-22 -18 -57 -25 -154 -3 -37 -10 -77 -16 -88 -9 -17 -4 -27 39 -68 27 -26 61
-50 76 -54 16 -4 41 -16 56 -27 32 -24 56 -17 83 24 14 22 23 25 69 23 50 -2
118 -27 118 -44 0 -4 21 -17 48 -28 36 -17 64 -21 123 -19 41 1 84 7 95 12 10
5 28 9 39 9 11 -1 25 4 30 10 6 6 31 23 56 37 41 23 48 25 65 12 11 -8 22 -15
27 -15 4 0 7 160 7 355 l0 355 -22 1 c-22 1 -35 1 -88 0 -14 0 -44 0 -68 2
-24 1 -46 -1 -48 -5 -3 -5 -13 -4 -22 1 -19 9 -66 5 -93 -10 -21 -11 -82 -12
-93 -2 -12 12 -38 15 -156 18 -63 2 -128 8 -143 14 -39 15 -44 14 -112 -24z"/>
</g>
</svg>
